<?xml version="1.0" encoding="UTF-8"?><svg xmlns="http://www.w3.org/2000/svg" xmlns:xlink="http://www.w3.org/1999/xlink" contentScriptType="text/ecmascript" width="150" zoomAndPan="magnify" contentStyleType="text/css" viewBox="0 0 150 149.999998" height="149.999998" preserveAspectRatio="xMidYMid meet" version="1.0"><defs><clipPath id="clip-0"><path d="M 4 24.347656 L 146.398438 24.347656 L 146.398438 114.347656 L 4 114.347656 Z M 4 24.347656 " clip-rule="nonzero"/></clipPath><clipPath id="clip-1"><path d="M 31 24.347656 L 37 24.347656 L 37 114.347656 L 31 114.347656 Z M 31 24.347656 " clip-rule="nonzero"/></clipPath><clipPath id="clip-2"><path d="M 4 48 L 146.398438 48 L 146.398438 55 L 4 55 Z M 4 48 " clip-rule="nonzero"/></clipPath></defs><g clip-path="url(#clip-0)"><path fill="rgb(92.158508%, 80.389404%, 4.309082%)" d="M 146.261719 31.675781 L 146.261719 106.992188 C 146.261719 111.039062 142.960938 114.332031 138.882812 114.332031 L 11.414062 114.332031 C 7.335938 114.332031 4.035156 111.039062 4.035156 106.992188 L 4.035156 31.675781 C 4.035156 27.621094 7.335938 24.335938 11.414062 24.335938 L 138.882812 24.335938 C 142.960938 24.335938 146.261719 27.621094 146.261719 31.675781 " fill-opacity="1" fill-rule="nonzero"/></g><g clip-path="url(#clip-1)"><path fill="rgb(6.269836%, 5.879211%, 5.099487%)" d="M 36.941406 24.335938 L 36.941406 114.332031 L 31.199219 114.332031 L 31.199219 24.335938 L 36.941406 24.335938 " fill-opacity="1" fill-rule="nonzero"/></g><g clip-path="url(#clip-2)"><path fill="rgb(6.269836%, 5.879211%, 5.099487%)" d="M 146.261719 48.457031 L 146.261719 54.164062 L 4.035156 54.164062 L 4.035156 48.457031 L 146.261719 48.457031 " fill-opacity="1" fill-rule="nonzero"/></g><path fill="rgb(6.269836%, 5.879211%, 5.099487%)" d="M 15.203125 45.847656 C 14.65625 44.730469 14.574219 43.472656 14.976562 42.289062 C 15.636719 40.359375 17.464844 39.136719 19.410156 39.136719 C 19.910156 39.136719 20.417969 39.21875 20.917969 39.386719 C 22.554688 39.945312 26.613281 43.789062 30.0625 47.417969 C 24.753906 48.242188 19.394531 48.710938 17.890625 48.203125 C 16.710938 47.800781 15.753906 46.964844 15.203125 45.847656 Z M 38.074219 47.417969 C 41.527344 43.789062 45.585938 39.945312 47.222656 39.386719 C 49.664062 38.558594 52.328125 39.863281 53.164062 42.289062 C 53.570312 43.472656 53.488281 44.730469 52.933594 45.847656 C 52.382812 46.964844 51.429688 47.800781 50.246094 48.203125 C 48.609375 48.757812 43.039062 48.1875 38.074219 47.417969 Z M 57.429688 40.839844 C 55.792969 36.070312 50.558594 33.515625 45.765625 35.144531 C 42.726562 36.179688 37.226562 41.722656 34.074219 45.109375 C 30.914062 41.722656 25.414062 36.179688 22.375 35.144531 C 20.050781 34.355469 17.558594 34.511719 15.359375 35.589844 C 13.152344 36.667969 11.503906 38.53125 10.707031 40.839844 C 9.070312 45.613281 11.640625 50.816406 16.4375 52.445312 C 17.347656 52.757812 18.6875 52.878906 20.234375 52.878906 C 23.183594 52.878906 26.894531 52.4375 29.902344 51.984375 L 19.332031 57.929688 L 23.835938 58.234375 L 21.777344 62.226562 L 34.070312 55.308594 L 46.363281 62.226562 L 44.304688 58.234375 L 48.804688 57.929688 L 38.238281 51.984375 C 41.246094 52.4375 44.957031 52.878906 47.90625 52.878906 C 49.453125 52.878906 50.792969 52.757812 51.703125 52.445312 C 56.5 50.816406 59.070312 45.613281 57.429688 40.839844 " fill-opacity="1" fill-rule="nonzero"/><path fill="rgb(6.269836%, 5.879211%, 5.099487%)" d="M 86.488281 101.363281 L 90.433594 101.363281 C 90.433594 102.867188 90.125 103.941406 89.207031 104.785156 C 88.402344 105.527344 87.484375 105.742188 86.511719 105.742188 C 85.132812 105.742188 84.195312 105.242188 83.574219 104.613281 C 83 104.042969 82.472656 103.117188 82.472656 101.863281 C 82.472656 100.65625 82.953125 99.664062 83.621094 99.011719 C 84.25 98.382812 85.238281 97.894531 86.589844 97.894531 C 87.300781 97.894531 88.070312 98.054688 88.65625 98.40625 C 89.25 98.773438 89.746094 99.378906 90.019531 99.96875 L 88.128906 100.746094 C 87.992188 100.390625 87.773438 100.140625 87.578125 99.980469 C 87.246094 99.707031 86.890625 99.605469 86.511719 99.605469 C 86.039062 99.605469 85.558594 99.777344 85.203125 100.128906 C 84.753906 100.574219 84.539062 101.28125 84.539062 101.875 C 84.539062 102.570312 84.789062 103.140625 85.144531 103.519531 C 85.511719 103.90625 85.960938 104.101562 86.546875 104.101562 C 86.890625 104.101562 87.289062 104.042969 87.644531 103.746094 C 87.828125 103.597656 88.046875 103.324219 88.117188 102.902344 L 86.488281 102.902344 L 86.488281 101.363281 " fill-opacity="1" fill-rule="nonzero"/><path fill="rgb(6.269836%, 5.879211%, 5.099487%)" d="M 93.679688 98.066406 L 93.679688 105.675781 L 91.695312 105.675781 L 91.695312 98.066406 L 93.679688 98.066406 " fill-opacity="1" fill-rule="nonzero"/><path fill="rgb(6.269836%, 5.879211%, 5.099487%)" d="M 99.667969 99.742188 L 97.269531 99.742188 L 97.269531 101.007812 L 99.449219 101.007812 L 99.449219 102.683594 L 97.269531 102.683594 L 97.269531 105.675781 L 95.285156 105.675781 L 95.285156 98.066406 L 99.667969 98.066406 L 99.667969 99.742188 " fill-opacity="1" fill-rule="nonzero"/><path fill="rgb(6.269836%, 5.879211%, 5.099487%)" d="M 103.742188 99.742188 L 103.742188 105.675781 L 101.753906 105.675781 L 101.753906 99.742188 L 100.125 99.742188 L 100.125 98.066406 L 105.371094 98.066406 L 105.371094 99.742188 L 103.742188 99.742188 " fill-opacity="1" fill-rule="nonzero"/><path fill="rgb(6.269836%, 5.879211%, 5.099487%)" d="M 114.417969 105.46875 C 113.628906 105.753906 113.191406 105.847656 112.699219 105.847656 C 111.367188 105.847656 110.371094 105.320312 109.738281 104.707031 C 108.992188 103.960938 108.582031 102.925781 108.582031 101.933594 C 108.582031 100.847656 109.050781 99.820312 109.738281 99.125 C 110.417969 98.441406 111.4375 97.9375 112.628906 97.9375 C 112.996094 97.9375 113.59375 97.996094 114.417969 98.328125 L 114.417969 100.6875 C 113.777344 99.902344 113.019531 99.855469 112.6875 99.855469 C 112.113281 99.855469 111.679688 100.027344 111.3125 100.359375 C 110.839844 100.792969 110.644531 101.382812 110.644531 101.921875 C 110.644531 102.445312 110.863281 103.027344 111.265625 103.40625 C 111.597656 103.710938 112.125 103.929688 112.6875 103.929688 C 112.988281 103.929688 113.71875 103.894531 114.417969 103.128906 L 114.417969 105.46875 " fill-opacity="1" fill-rule="nonzero"/><path fill="rgb(6.269836%, 5.879211%, 5.099487%)" d="M 119.824219 102.890625 L 118.960938 100.425781 L 118.125 102.890625 Z M 120.351562 104.398438 L 117.574219 104.398438 L 117.058594 105.675781 L 114.960938 105.675781 L 117.894531 98.066406 L 120.0625 98.066406 L 122.945312 105.675781 L 120.820312 105.675781 L 120.351562 104.398438 " fill-opacity="1" fill-rule="nonzero"/><path fill="rgb(6.269836%, 5.879211%, 5.099487%)" d="M 125.8125 101.476562 L 126.1875 101.476562 C 126.488281 101.476562 126.914062 101.394531 127.152344 101.167969 C 127.300781 101.019531 127.40625 100.769531 127.40625 100.527344 C 127.40625 100.300781 127.3125 100.050781 127.140625 99.890625 C 126.957031 99.707031 126.625 99.59375 126.1875 99.59375 L 125.8125 99.59375 Z M 126.921875 98.066406 C 127.496094 98.066406 128.230469 98.15625 128.792969 98.738281 C 129.230469 99.183594 129.445312 99.84375 129.445312 100.449219 C 129.445312 101.097656 129.21875 101.667969 128.839844 102.035156 C 128.542969 102.320312 128.140625 102.492188 127.785156 102.558594 L 130.183594 105.675781 L 127.714844 105.675781 L 125.8125 102.753906 L 125.8125 105.675781 L 123.828125 105.675781 L 123.828125 98.066406 L 126.921875 98.066406 " fill-opacity="1" fill-rule="nonzero"/><path fill="rgb(6.269836%, 5.879211%, 5.099487%)" d="M 133.003906 104 L 133.40625 104 C 133.886719 104 134.5625 103.953125 135.078125 103.449219 C 135.332031 103.210938 135.664062 102.730469 135.664062 101.886719 C 135.664062 101.179688 135.449219 100.574219 135.070312 100.21875 C 134.597656 99.789062 133.980469 99.742188 133.484375 99.742188 L 133.003906 99.742188 Z M 131.019531 105.675781 L 131.019531 98.066406 L 133.621094 98.066406 C 134.390625 98.066406 135.675781 98.167969 136.664062 99.113281 C 137.558594 99.96875 137.730469 101.066406 137.730469 101.886719 C 137.730469 102.890625 137.476562 103.78125 136.730469 104.523438 C 136.125 105.125 135.101562 105.675781 133.796875 105.675781 L 131.019531 105.675781 " fill-opacity="1" fill-rule="nonzero"/></svg>