<svg xmlns="http://www.w3.org/2000/svg" xmlns:xlink="http://www.w3.org/1999/xlink" width="500" zoomAndPan="magnify" viewBox="0 0 375 374.999991" height="500" preserveAspectRatio="xMidYMid meet" version="1.0"><defs><clipPath id="id1"><path d="M 248 278 L 373.5 278 L 373.5 371.25 L 248 371.25 Z M 248 278 " clip-rule="nonzero"/></clipPath></defs><rect x="-37.5" width="450" fill="#ffffff" y="-37.499999" height="449.999989" fill-opacity="1"/><rect x="-37.5" width="450" fill="#ffffff" y="-37.499999" height="449.999989" fill-opacity="1"/><rect x="-37.5" width="450" fill="#ffffff" y="-37.499999" height="449.999989" fill-opacity="1"/><rect x="-37.5" width="450" fill="#ffffff" y="-37.499999" height="449.999989" fill-opacity="1"/><path fill="#a3623a" d="M 199.699219 326.578125 L 21.851562 326.578125 L 21.851562 207.847656 L 199.699219 207.847656 L 199.699219 326.578125 " fill-opacity="1" fill-rule="nonzero"/><path fill="#7c472a" d="M 21.851562 214.890625 L 199.699219 226.011719 L 199.699219 207.847656 L 21.851562 207.847656 L 21.851562 214.890625 " fill-opacity="1" fill-rule="nonzero"/><path fill="#aa6843" d="M 209.410156 211.601562 L 12.136719 211.601562 L 12.136719 197.046875 L 209.410156 197.046875 L 209.410156 211.601562 " fill-opacity="1" fill-rule="nonzero"/><path fill="#bc7d5a" d="M 209.410156 197.046875 L 199.699219 188.019531 L 21.851562 188.019531 L 12.136719 197.046875 L 209.410156 197.046875 " fill-opacity="1" fill-rule="nonzero"/><path fill="#eae1c1" d="M 186.058594 288.859375 L 39.242188 288.859375 L 39.242188 245.566406 L 186.058594 245.566406 L 186.058594 288.859375 " fill-opacity="1" fill-rule="nonzero"/><path fill="#212c32" d="M 69.074219 274.726562 C 70.253906 274.726562 71.359375 274.5 72.382812 274.054688 C 73.414062 273.605469 74.3125 272.988281 75.089844 272.207031 C 75.859375 271.417969 76.46875 270.511719 76.921875 269.472656 C 77.367188 268.4375 77.585938 267.328125 77.585938 266.144531 C 77.585938 264.960938 77.367188 263.859375 76.921875 262.832031 C 76.46875 261.804688 75.859375 260.902344 75.089844 260.128906 C 74.3125 259.355469 73.414062 258.742188 72.382812 258.296875 C 71.359375 257.847656 70.253906 257.625 69.074219 257.625 L 64.035156 257.625 L 64.035156 274.726562 Z M 61.898438 255.484375 L 69.074219 255.484375 C 70.539062 255.484375 71.921875 255.765625 73.226562 256.328125 C 74.53125 256.886719 75.65625 257.644531 76.613281 258.597656 C 77.570312 259.558594 78.328125 260.6875 78.886719 261.992188 C 79.449219 263.292969 79.726562 264.679688 79.726562 266.144531 C 79.726562 267.609375 79.449219 268.996094 78.886719 270.292969 C 78.328125 271.601562 77.570312 272.738281 76.613281 273.714844 C 75.65625 274.691406 74.53125 275.460938 73.226562 276.019531 C 71.921875 276.578125 70.539062 276.863281 69.074219 276.863281 L 61.898438 276.863281 L 61.898438 255.484375 " fill-opacity="1" fill-rule="nonzero"/><path fill="#212c32" d="M 83.480469 266.160156 C 83.480469 267.421875 83.726562 268.621094 84.210938 269.75 C 84.703125 270.882812 85.367188 271.875 86.210938 272.71875 C 87.058594 273.566406 88.042969 274.230469 89.175781 274.722656 C 90.304688 275.214844 91.5 275.457031 92.761719 275.457031 C 94.023438 275.457031 95.214844 275.214844 96.332031 274.722656 C 97.449219 274.230469 98.433594 273.566406 99.277344 272.71875 C 100.121094 271.875 100.789062 270.882812 101.28125 269.75 C 101.769531 268.621094 102.011719 267.421875 102.011719 266.160156 C 102.011719 264.894531 101.769531 263.699219 101.28125 262.578125 C 100.789062 261.457031 100.121094 260.472656 99.277344 259.628906 C 98.433594 258.78125 97.449219 258.117188 96.332031 257.628906 C 95.214844 257.136719 94.023438 256.890625 92.761719 256.890625 C 91.5 256.890625 90.304688 257.136719 89.175781 257.628906 C 88.042969 258.117188 87.058594 258.78125 86.210938 259.628906 C 85.367188 260.472656 84.703125 261.457031 84.210938 262.578125 C 83.726562 263.699219 83.480469 264.894531 83.480469 266.160156 Z M 81.34375 266.171875 C 81.34375 264.605469 81.644531 263.128906 82.242188 261.746094 C 82.84375 260.363281 83.664062 259.152344 84.699219 258.113281 C 85.734375 257.074219 86.945312 256.253906 88.324219 255.652344 C 89.707031 255.054688 91.183594 254.753906 92.746094 254.753906 C 94.3125 254.753906 95.78125 255.054688 97.164062 255.652344 C 98.550781 256.253906 99.761719 257.074219 100.792969 258.113281 C 101.832031 259.152344 102.652344 260.363281 103.246094 261.746094 C 103.847656 263.128906 104.148438 264.605469 104.148438 266.171875 C 104.148438 267.742188 103.847656 269.21875 103.246094 270.601562 C 102.652344 271.988281 101.832031 273.195312 100.792969 274.234375 C 99.761719 275.273438 98.550781 276.09375 97.164062 276.691406 C 95.78125 277.292969 94.3125 277.59375 92.746094 277.59375 C 91.183594 277.59375 89.707031 277.292969 88.324219 276.691406 C 86.945312 276.09375 85.734375 275.273438 84.699219 274.234375 C 83.664062 273.195312 82.84375 271.988281 82.242188 270.601562 C 81.644531 269.21875 81.34375 267.742188 81.34375 266.171875 " fill-opacity="1" fill-rule="nonzero"/><path fill="#212c32" d="M 118.3125 255.484375 L 120.449219 255.484375 L 120.449219 276.863281 L 118.3125 276.863281 L 108.359375 259.757812 L 108.359375 276.863281 L 106.222656 276.863281 L 106.222656 255.484375 L 108.359375 255.484375 L 118.3125 272.582031 L 118.3125 255.484375 " fill-opacity="1" fill-rule="nonzero"/><path fill="#212c32" d="M 127.195312 266.417969 L 131.957031 266.417969 L 129.574219 259 Z M 137.542969 276.863281 L 135.316406 276.863281 L 132.628906 268.554688 L 126.496094 268.554688 L 123.835938 276.863281 L 121.609375 276.863281 L 128.449219 255.484375 L 130.707031 255.484375 L 137.542969 276.863281 " fill-opacity="1" fill-rule="nonzero"/><path fill="#212c32" d="M 134.246094 257.625 L 134.246094 255.484375 L 148.472656 255.484375 L 148.472656 257.625 L 142.429688 257.625 L 142.429688 276.863281 L 140.292969 276.863281 L 140.292969 257.625 L 134.246094 257.625 " fill-opacity="1" fill-rule="nonzero"/><path fill="#212c32" d="M 150 255.484375 L 164.222656 255.484375 L 164.222656 257.625 L 152.136719 257.625 L 152.136719 266.417969 L 162.089844 266.417969 L 162.089844 268.554688 L 152.136719 268.554688 L 152.136719 274.726562 L 164.222656 274.726562 L 164.222656 276.863281 L 150 276.863281 L 150 255.484375 " fill-opacity="1" fill-rule="nonzero"/><path fill="#72422a" d="M 156.796875 193.617188 L 64.753906 193.617188 L 69.515625 189.914062 L 152.035156 189.914062 L 156.796875 193.617188 " fill-opacity="1" fill-rule="nonzero"/><path fill="#f09d79" d="M 226.378906 306.972656 C 226.378906 306.972656 198.410156 281.996094 163.589844 298.957031 C 163.589844 298.957031 140.554688 302.734375 135.195312 303.304688 C 135.195312 303.304688 104.125 300.824219 100.378906 307.796875 C 100.378906 307.796875 96.625 311.898438 98.9375 317.332031 C 98.9375 317.332031 75.734375 319.914062 67.164062 321.0625 C 67.164062 321.0625 52.164062 319.914062 43.058594 321.0625 C 43.058594 321.0625 19.605469 320.222656 18.535156 323.085938 C 18.535156 323.085938 0.859375 332.824219 28.175781 341.988281 C 28.175781 341.988281 51.09375 345.117188 63.953125 349.128906 C 63.953125 349.128906 111.84375 360.582031 127.378906 363.445312 C 127.378906 363.445312 131.667969 366.882812 146.128906 363.445312 C 146.128906 363.445312 198.945312 352.566406 217.691406 352.566406 C 217.691406 352.566406 313.957031 350.84375 324.832031 350.84375 L 324.832031 292.421875 C 324.832031 292.421875 276.988281 303.820312 226.378906 306.972656 " fill-opacity="1" fill-rule="nonzero"/><path fill="#db8064" d="M 98.9375 317.332031 C 98.9375 317.332031 99.019531 317.671875 99.328125 318.222656 C 99.628906 318.777344 100.183594 319.519531 101.042969 320.292969 C 101.902344 321.0625 103.054688 321.859375 104.496094 322.558594 C 105.953125 323.222656 107.640625 323.871094 109.574219 324.320312 C 111.484375 324.820312 113.628906 325.113281 115.882812 325.410156 C 117.023438 325.503906 118.191406 325.597656 119.386719 325.691406 C 120.582031 325.730469 121.855469 325.824219 123.121094 325.890625 C 125.671875 326.046875 128.304688 326.15625 130.980469 326.363281 C 133.652344 326.566406 136.355469 326.675781 139.0625 326.835938 C 141.777344 327.035156 144.496094 327.226562 147.167969 327.417969 C 148.511719 327.507812 149.839844 327.617188 151.152344 327.742188 C 152.476562 327.910156 153.785156 328.074219 155.074219 328.242188 C 155.71875 328.324219 156.355469 328.40625 156.984375 328.488281 L 157.925781 328.605469 L 158.121094 328.636719 L 158.460938 328.714844 L 158.910156 328.824219 C 159.511719 328.960938 160.101562 329.101562 160.6875 329.238281 C 161.289062 329.410156 161.894531 329.617188 162.488281 329.800781 C 163.046875 329.988281 163.601562 330.167969 164.148438 330.347656 C 164.675781 330.53125 165.199219 330.703125 165.6875 330.816406 C 166.179688 330.941406 166.667969 331.105469 167.15625 331.199219 C 167.648438 331.261719 168.128906 331.324219 168.605469 331.382812 C 168.84375 331.417969 169.078125 331.445312 169.3125 331.476562 C 169.550781 331.484375 169.785156 331.46875 170.019531 331.46875 C 170.492188 331.46875 170.953125 331.464844 171.398438 331.464844 C 172.296875 331.511719 173.164062 331.390625 173.972656 331.308594 C 174.792969 331.226562 175.558594 331.152344 176.261719 331.078125 C 176.972656 330.996094 177.621094 330.871094 178.207031 330.78125 C 180.558594 330.402344 181.921875 330.222656 181.921875 330.222656 C 181.921875 330.222656 180.648438 330.714844 178.386719 331.519531 C 177.816406 331.714844 177.191406 331.957031 176.5 332.167969 C 175.792969 332.347656 175.027344 332.546875 174.214844 332.761719 C 173.390625 332.960938 172.523438 333.214844 171.558594 333.3125 C 171.078125 333.375 170.589844 333.441406 170.085938 333.503906 C 169.828125 333.535156 169.574219 333.570312 169.3125 333.597656 C 169.046875 333.589844 168.777344 333.589844 168.507812 333.585938 C 166.328125 333.726562 163.925781 333.09375 161.746094 332.570312 C 161.207031 332.449219 160.664062 332.324219 160.113281 332.199219 C 159.523438 332.109375 158.921875 332.019531 158.3125 331.929688 L 157.855469 331.863281 L 157.628906 331.828125 L 157.511719 331.808594 C 157.65625 331.832031 157.535156 331.816406 157.5625 331.820312 L 157.53125 331.820312 L 157.472656 331.816406 L 156.558594 331.742188 C 155.941406 331.699219 155.316406 331.648438 154.691406 331.601562 C 153.441406 331.503906 152.171875 331.40625 150.882812 331.3125 C 149.570312 331.265625 148.246094 331.203125 146.914062 331.117188 C 144.238281 330.96875 141.523438 330.820312 138.804688 330.664062 C 136.082031 330.457031 133.34375 330.300781 130.679688 330.058594 C 128.007812 329.832031 125.386719 329.507812 122.847656 329.253906 C 121.570312 329.109375 120.347656 328.996094 119.089844 328.832031 C 117.851562 328.628906 116.636719 328.429688 115.449219 328.234375 C 113.09375 327.757812 110.882812 327.179688 108.914062 326.410156 C 106.921875 325.726562 105.199219 324.753906 103.757812 323.820312 C 102.316406 322.871094 101.238281 321.773438 100.480469 320.804688 C 99.707031 319.835938 99.332031 318.917969 99.140625 318.300781 C 98.945312 317.675781 98.9375 317.332031 98.9375 317.332031 " fill-opacity="1" fill-rule="nonzero"/><path fill="#db8064" d="M 43.058594 321.0625 C 44.40625 320.882812 45.761719 320.785156 47.121094 320.742188 C 48.484375 320.695312 49.84375 320.679688 51.210938 320.710938 C 53.9375 320.792969 56.664062 321.054688 59.367188 321.519531 C 62.074219 321.976562 64.746094 322.6875 67.351562 323.640625 C 68.640625 324.148438 69.914062 324.714844 71.152344 325.359375 C 71.757812 325.703125 72.378906 326.027344 72.960938 326.410156 C 73.566406 326.769531 74.128906 327.195312 74.703125 327.605469 L 73.898438 327.441406 C 75.363281 327.09375 76.796875 326.785156 78.253906 326.503906 C 79.710938 326.214844 81.164062 325.953125 82.628906 325.730469 C 84.089844 325.507812 85.558594 325.289062 87.027344 325.121094 C 88.492188 324.925781 89.972656 324.816406 91.445312 324.679688 C 92.925781 324.585938 94.398438 324.460938 95.878906 324.441406 C 97.359375 324.386719 98.84375 324.40625 100.324219 324.425781 C 101.800781 324.511719 103.28125 324.550781 104.75 324.726562 C 105.484375 324.804688 106.222656 324.847656 106.953125 324.984375 L 109.132812 325.351562 L 106.925781 325.261719 C 106.195312 325.207031 105.457031 325.226562 104.726562 325.214844 C 103.261719 325.179688 101.792969 325.28125 100.332031 325.328125 C 98.871094 325.445312 97.410156 325.5 95.953125 325.664062 C 94.5 325.789062 93.046875 325.964844 91.59375 326.132812 C 88.695312 326.527344 85.804688 326.957031 82.925781 327.492188 C 80.058594 328.027344 77.171875 328.589844 74.363281 329.289062 L 73.933594 329.398438 L 73.558594 329.128906 C 72.5 328.371094 71.410156 327.65625 70.257812 327.023438 C 69.101562 326.402344 67.90625 325.851562 66.683594 325.355469 C 65.453125 324.871094 64.203125 324.425781 62.933594 324.03125 C 61.65625 323.660156 60.367188 323.328125 59.066406 323.015625 C 56.460938 322.4375 53.8125 321.984375 51.140625 321.671875 C 49.804688 321.503906 48.457031 321.363281 47.113281 321.265625 C 45.765625 321.175781 44.414062 321.097656 43.058594 321.0625 " fill-opacity="1" fill-rule="nonzero"/><path fill="#db8064" d="M 34.070312 320.992188 C 32.339844 321.695312 30.710938 322.640625 29.300781 323.820312 C 28.601562 324.410156 27.960938 325.070312 27.457031 325.816406 C 26.949219 326.550781 26.589844 327.375 26.441406 328.226562 C 26.371094 328.652344 26.347656 329.078125 26.367188 329.507812 L 26.4375 330.152344 L 26.589844 330.78125 C 26.722656 331.191406 26.847656 331.609375 27.058594 332 C 27.234375 332.398438 27.472656 332.773438 27.710938 333.148438 C 27.941406 333.527344 28.234375 333.871094 28.496094 334.226562 C 28.792969 334.5625 29.078125 334.910156 29.390625 335.234375 C 30.015625 335.886719 30.683594 336.503906 31.371094 337.101562 L 31.109375 336.949219 C 36.671875 338.71875 42.230469 340.511719 47.769531 342.339844 C 53.324219 344.140625 58.851562 346.019531 64.386719 347.863281 L 64.25 347.824219 C 68.839844 348.8125 73.417969 349.875 78 350.902344 C 82.582031 351.933594 87.164062 352.96875 91.738281 354.046875 L 105.457031 357.257812 L 119.160156 360.550781 L 118.820312 360.519531 C 120.757812 360.429688 122.722656 360.316406 124.671875 360.167969 C 126.625 360.035156 128.578125 359.863281 130.53125 359.683594 C 132.480469 359.511719 134.433594 359.316406 136.382812 359.101562 C 138.332031 358.898438 140.285156 358.714844 142.230469 358.441406 L 148.074219 357.707031 L 153.898438 356.824219 L 156.8125 356.394531 L 159.714844 355.867188 L 165.53125 354.855469 L 159.8125 356.347656 L 156.949219 357.070312 L 154.0625 357.703125 L 148.277344 358.925781 L 142.453125 359.96875 C 140.511719 360.328125 138.5625 360.601562 136.609375 360.902344 C 134.660156 361.199219 132.707031 361.488281 130.75 361.710938 C 128.792969 361.960938 126.832031 362.195312 124.863281 362.394531 C 122.898438 362.609375 120.941406 362.789062 118.949219 362.945312 L 118.804688 362.953125 L 118.617188 362.914062 L 104.847656 359.90625 L 91.101562 356.8125 C 86.515625 355.792969 81.941406 354.730469 77.371094 353.65625 C 72.792969 352.582031 68.214844 351.546875 63.648438 350.429688 L 63.566406 350.414062 L 63.511719 350.390625 C 58.019531 348.421875 52.511719 346.484375 47.035156 344.464844 C 41.546875 342.476562 36.074219 340.445312 30.609375 338.398438 L 30.441406 338.335938 L 30.347656 338.25 C 29.65625 337.582031 28.976562 336.902344 28.347656 336.164062 C 28.039062 335.792969 27.753906 335.402344 27.453125 335.019531 C 27.1875 334.609375 26.898438 334.21875 26.664062 333.785156 C 26.425781 333.351562 26.195312 332.925781 26.011719 332.457031 C 25.808594 332.007812 25.683594 331.515625 25.558594 331.035156 L 25.433594 330.292969 L 25.390625 329.539062 C 25.398438 329.027344 25.449219 328.523438 25.574219 328.039062 C 25.820312 327.058594 26.304688 326.167969 26.90625 325.40625 C 27.511719 324.648438 28.234375 324 29.003906 323.441406 C 30.558594 322.339844 32.285156 321.546875 34.070312 320.992188 " fill-opacity="1" fill-rule="nonzero"/><path fill="#ebbaa4" d="M 120.050781 306.972656 C 120.050781 306.972656 121.257812 319.144531 117.640625 322.847656 C 114.023438 326.550781 101.296875 320.488281 103.445312 311.035156 C 103.445312 311.035156 105.050781 304.050781 120.050781 306.972656 " fill-opacity="1" fill-rule="nonzero"/><g clip-path="url(#id1)"><path fill="#4d6e77" d="M 248.039062 293.179688 L 248.039062 371.074219 L 373.445312 371.074219 L 373.445312 278.285156 L 248.039062 293.179688 " fill-opacity="1" fill-rule="nonzero"/></g><path fill="#e8821d" d="M 126.570312 193.414062 C 130.257812 189.0625 132.484375 183.425781 132.484375 177.273438 C 132.484375 163.46875 121.296875 152.28125 107.5 152.28125 C 93.699219 152.28125 82.507812 163.46875 82.507812 177.273438 C 82.507812 183.425781 84.738281 189.0625 88.421875 193.414062 L 126.570312 193.414062 " fill-opacity="1" fill-rule="nonzero"/><path fill="#eaa131" d="M 125.042969 193.414062 C 128.949219 189.164062 131.339844 183.5 131.339844 177.273438 C 131.339844 164.105469 120.664062 153.425781 107.5 153.425781 C 94.332031 153.425781 83.660156 164.105469 83.660156 177.273438 C 83.660156 183.5 86.042969 189.164062 89.953125 193.414062 L 125.042969 193.414062 " fill-opacity="1" fill-rule="nonzero"/><path fill="#b2651d" d="M 96.257812 193.414062 L 118.738281 193.414062 C 123.832031 189.859375 127.175781 183.960938 127.175781 177.273438 C 127.175781 166.402344 118.367188 157.589844 107.5 157.589844 C 96.628906 157.589844 87.820312 166.402344 87.820312 177.273438 C 87.820312 183.960938 91.160156 189.859375 96.257812 193.414062 " fill-opacity="1" fill-rule="nonzero"/><path fill="#e8821d" d="M 96.265625 193.414062 L 118.738281 193.414062 C 123.832031 189.859375 127.175781 183.960938 127.175781 177.273438 C 127.175781 177.003906 127.167969 176.742188 127.15625 176.472656 C 125.914062 166.792969 117.65625 159.316406 107.644531 159.316406 C 96.777344 159.316406 87.96875 168.125 87.96875 178.996094 C 87.96875 179.265625 87.976562 179.535156 87.988281 179.800781 C 88.707031 185.433594 91.824219 190.3125 96.265625 193.414062 " fill-opacity="1" fill-rule="nonzero"/><path fill="#bc5e4e" d="M 47.613281 65.269531 C 47.613281 65.269531 32.351562 59.164062 39.070312 48.476562 C 39.070312 48.476562 58.007812 52.449219 62.578125 51.835938 C 67.144531 51.226562 122.109375 52.449219 127.664062 50.617188 C 133.214844 48.78125 111.707031 61.296875 111.707031 61.296875 L 47.613281 65.269531 " fill-opacity="1" fill-rule="nonzero"/><path fill="#cf6c54" d="M 95.4375 78.308594 C 95.4375 78.308594 79.253906 81.324219 64.09375 76.257812 C 64.09375 76.257812 53.109375 80.6875 36.625 76.257812 C 36.625 76.257812 6.953125 85.417969 7.140625 65.878906 C 7.140625 65.878906 1.675781 61.605469 36.472656 60.992188 C 36.472656 60.992188 61.253906 57.332031 70.308594 57.941406 C 79.355469 58.550781 95.347656 60.992188 113.292969 59.773438 C 131.242188 58.550781 95.4375 78.308594 95.4375 78.308594 " fill-opacity="1" fill-rule="nonzero"/><path fill="#e37e5f" d="M 108.042969 88.046875 C 108.042969 88.046875 94.828125 89.523438 81.292969 95.015625 C 81.292969 95.015625 63.484375 105.394531 53.109375 106.617188 C 53.109375 106.617188 21.363281 132.261719 8.546875 111.5 C 8.546875 111.5 0 109.839844 25.03125 101.210938 C 25.03125 101.210938 52.3125 86.46875 57.285156 82.804688 C 62.261719 79.140625 105.117188 65.097656 113.292969 61.433594 L 108.042969 88.046875 " fill-opacity="1" fill-rule="nonzero"/><path fill="#f09d79" d="M 95.226562 128.195312 C 95.226562 128.195312 100.109375 124.898438 102.046875 112.738281 C 102.046875 112.738281 119.84375 96.203125 137.558594 92.230469 C 137.558594 92.230469 144.050781 96.429688 147.113281 109.023438 C 147.113281 109.023438 148.605469 120.164062 135.941406 132.476562 C 135.941406 132.476562 115.851562 149.296875 123.179688 159.613281 C 123.179688 159.613281 126.734375 167.074219 141.839844 153.796875 C 141.839844 153.796875 152.402344 143.222656 159.121094 137.117188 C 165.828125 131.011719 183.128906 117.984375 189.839844 108.214844 C 196.554688 98.445312 208.152344 89.691406 214.871094 77.480469 C 214.871094 77.480469 223.414062 72.59375 233.792969 71.375 C 244.167969 70.15625 285.066406 68.933594 300.328125 66.488281 C 315.585938 64.046875 281.105469 12.601562 281.105469 12.601562 C 281.105469 12.601562 190.761719 30.511719 161.464844 40.28125 C 161.464844 40.28125 111.8125 54.121094 106.117188 59.820312 C 106.117188 59.820312 95.039062 65.515625 95.285156 74.472656 C 95.285156 74.472656 83.328125 101.339844 79.253906 109.480469 C 79.253906 109.480469 76.003906 114.367188 75.1875 122.503906 L 70.308594 177.003906 C 70.308594 177.003906 86.582031 181.890625 89.84375 150.136719 C 89.84375 150.136719 94.003906 143.222656 95.226562 128.195312 " fill-opacity="1" fill-rule="nonzero"/><path fill="#ebbaa4" d="M 70.308594 177.003906 L 71.886719 159.320312 C 74.707031 159.859375 77.523438 162.550781 77.523438 162.550781 C 76.113281 169.511719 73.183594 175.152344 71.613281 177.226562 C 70.800781 177.148438 70.308594 177.003906 70.308594 177.003906 " fill-opacity="1" fill-rule="nonzero"/><path fill="#ebbaa4" d="M 124.089844 160.667969 C 124.355469 158.101562 126.496094 153.636719 136.042969 148.097656 C 136.042969 148.097656 140.859375 149.503906 144.019531 151.707031 C 142.671875 153 141.839844 153.796875 141.839844 153.796875 C 130.757812 163.539062 125.894531 162.117188 124.089844 160.667969 " fill-opacity="1" fill-rule="nonzero"/><path fill="#e8a086" d="M 7.789062 111.222656 C 6.453125 110.492188 5.394531 108.082031 24.039062 101.554688 C 26.367188 102.132812 28.347656 103.347656 25.941406 105.425781 C 22.585938 108.324219 7.792969 111.21875 7.789062 111.222656 " fill-opacity="1" fill-rule="nonzero"/><path fill="#d98872" d="M 12.542969 65.898438 C 10.523438 65.898438 8.5625 65.828125 6.941406 65.636719 C 6.488281 64.875 6.609375 62.492188 24.316406 61.433594 C 25.042969 62.488281 25.785156 64.015625 25.125 65.269531 C 25.125 65.269531 18.554688 65.898438 12.542969 65.898438 " fill-opacity="1" fill-rule="nonzero"/><path fill="#4d6e77" d="M 361.914062 0.0664062 L 361.914062 81.828125 L 231.128906 85.132812 L 218.101562 15.867188 L 361.914062 0.0664062 " fill-opacity="1" fill-rule="nonzero"/></svg>